<svg width="24" height="24" viewBox="0 0 24 24" fill="none" xmlns="http://www.w3.org/2000/svg">
<g id="Icon / Caret-Down">
<path id="Vector" d="M19.8974 9.39751L12.3974 16.8975C12.2919 17.0028 12.1489 17.062 11.9999 17.062C11.8508 17.062 11.7079 17.0028 11.6024 16.8975L4.10238 9.39751C4.00302 9.29088 3.94893 9.14984 3.9515 9.00412C3.95407 8.85839 4.01311 8.71935 4.11617 8.61629C4.21923 8.51323 4.35827 8.4542 4.50399 8.45163C4.64972 8.44905 4.79075 8.50315 4.89739 8.60251L11.9999 15.7041L19.1024 8.60251C19.209 8.50315 19.3501 8.44905 19.4958 8.45163C19.6415 8.4542 19.7805 8.51323 19.8836 8.61629C19.9867 8.71935 20.0457 8.85839 20.0483 9.00412C20.0508 9.14984 19.9967 9.29088 19.8974 9.39751Z" fill="white"/>
</g>
</svg>
