<svg width="32" height="32" viewBox="0 0 32 32" fill="none" xmlns="http://www.w3.org/2000/svg">
<rect width="32" height="32" rx="16" fill="#FDE8D7"/>
<path d="M13.0313 13.5C13.0313 13.3757 13.0806 13.2565 13.1685 13.1685C13.2565 13.0806 13.3757 13.0313 13.5 13.0313H18.5C18.6243 13.0313 18.7435 13.0806 18.8315 13.1685C18.9194 13.2565 18.9688 13.3757 18.9688 13.5C18.9688 13.6243 18.9194 13.7435 18.8315 13.8315C18.7435 13.9194 18.6243 13.9688 18.5 13.9688H13.5C13.3757 13.9688 13.2565 13.9194 13.1685 13.8315C13.0806 13.7435 13.0313 13.6243 13.0313 13.5ZM13.5 16.4688H18.5C18.6243 16.4688 18.7435 16.4194 18.8315 16.3315C18.9194 16.2435 18.9688 16.1243 18.9688 16C18.9688 15.8757 18.9194 15.7565 18.8315 15.6685C18.7435 15.5806 18.6243 15.5313 18.5 15.5313H13.5C13.3757 15.5313 13.2565 15.5806 13.1685 15.6685C13.0806 15.7565 13.0313 15.8757 13.0313 16C13.0313 16.1243 13.0806 16.2435 13.1685 16.3315C13.2565 16.4194 13.3757 16.4688 13.5 16.4688ZM16 18.0313H13.5C13.3757 18.0313 13.2565 18.0806 13.1685 18.1685C13.0806 18.2565 13.0313 18.3757 13.0313 18.5C13.0313 18.6243 13.0806 18.7435 13.1685 18.8315C13.2565 18.9194 13.3757 18.9688 13.5 18.9688H16C16.1243 18.9688 16.2435 18.9194 16.3315 18.8315C16.4194 18.7435 16.4688 18.6243 16.4688 18.5C16.4688 18.3757 16.4194 18.2565 16.3315 18.1685C16.2435 18.0806 16.1243 18.0313 16 18.0313ZM23.3438 9.75V18.2414C23.344 18.3851 23.3159 18.5274 23.2609 18.6601C23.2059 18.7929 23.1252 18.9134 23.0234 19.0148L19.0148 23.0234C18.9134 23.1252 18.7929 23.2059 18.6601 23.2609C18.5274 23.3159 18.3851 23.344 18.2414 23.3438H9.75C9.45992 23.3438 9.18172 23.2285 8.9766 23.0234C8.77148 22.8183 8.65625 22.5401 8.65625 22.25V9.75C8.65625 9.45992 8.77148 9.18172 8.9766 8.9766C9.18172 8.77148 9.45992 8.65625 9.75 8.65625H22.25C22.5401 8.65625 22.8183 8.77148 23.0234 8.9766C23.2285 9.18172 23.3438 9.45992 23.3438 9.75ZM9.75 22.4063H18.0313V18.5C18.0313 18.3757 18.0806 18.2565 18.1685 18.1685C18.2565 18.0806 18.3757 18.0313 18.5 18.0313H22.4063V9.75C22.4063 9.70856 22.3898 9.66882 22.3605 9.63951C22.3312 9.61021 22.2914 9.59375 22.25 9.59375H9.75C9.70856 9.59375 9.66882 9.61021 9.63951 9.63951C9.61021 9.66882 9.59375 9.70856 9.59375 9.75V22.25C9.59375 22.2914 9.61021 22.3312 9.63951 22.3605C9.66882 22.3898 9.70856 22.4063 9.75 22.4063ZM21.7438 18.9688H18.9688V21.7438L21.7438 18.9688Z" fill="#F36F32"/>
</svg>
