<svg width="25" height="24" viewBox="0 0 25 24" fill="none" xmlns="http://www.w3.org/2000/svg">
<g id="Nav Icon">
<path id="Vector" d="M3.5075 4.06594C3.44646 4.11862 3.39745 4.1838 3.36381 4.25708C3.33017 4.33035 3.31267 4.41 3.3125 4.49063V20.25C3.3125 20.3992 3.37176 20.5423 3.47725 20.6478C3.58274 20.7532 3.72582 20.8125 3.875 20.8125C4.02418 20.8125 4.16726 20.7532 4.27275 20.6478C4.37824 20.5423 4.4375 20.3992 4.4375 20.25V16.0106C7.07 13.8741 9.30125 14.9794 11.8756 16.2516C13.3869 17.0016 15.0153 17.8059 16.7506 17.8059C18.0228 17.8059 19.3531 17.3747 20.7406 16.1728C20.8018 16.1205 20.851 16.0557 20.8849 15.9828C20.9189 15.9098 20.9368 15.8305 20.9375 15.75V4.49063C20.9376 4.38274 20.9067 4.27709 20.8484 4.18628C20.7902 4.09547 20.707 4.02334 20.6089 3.97848C20.5108 3.93361 20.4018 3.91792 20.295 3.93326C20.1882 3.9486 20.0881 3.99433 20.0066 4.065C17.2878 6.42 15.0116 5.29219 12.3744 3.98625C9.75969 2.69157 6.78125 1.23375 3.5075 4.06594ZM19.8125 15.4847C17.18 17.6222 14.9488 16.5159 12.3744 15.2428C10.0063 14.07 7.35219 12.7566 4.4375 14.625V4.755C7.07 2.6175 9.30125 3.72375 11.8756 4.995C14.2437 6.16782 16.8978 7.48125 19.8125 5.61657V15.4847Z" fill="#71717A"/>
</g>
</svg>
