<svg width="25" height="24" viewBox="0 0 25 24" fill="none" xmlns="http://www.w3.org/2000/svg">
<path d="M11.3835 3.70844V4.96769C9.54367 5.28435 7.88938 6.27927 6.74723 7.75605C5.60508 9.23282 5.05807 11.0841 5.21418 12.9445C5.37029 14.8049 6.21818 16.5391 7.59047 17.8049C8.96276 19.0707 10.7597 19.776 12.6266 19.7816C14.3893 19.7814 16.095 19.1571 17.4413 18.0194C18.7877 16.8817 19.6877 15.3041 19.982 13.5661H21.24C20.9195 15.7385 19.7898 17.7095 18.0773 19.084C16.3648 20.4585 14.196 21.1349 12.0058 20.9777C9.81553 20.8204 7.76564 19.8411 6.26703 18.2361C4.76842 16.6311 3.93184 14.5189 3.92499 12.3231C3.92497 10.2304 4.6789 8.20773 6.04868 6.62563C7.41846 5.04354 9.31239 4.0079 11.3835 3.70844Z" fill="#71717A"/>
<path d="M13.8697 4.26779V11.0799H20.6818C20.5348 9.32243 19.7699 7.67384 18.5228 6.42676C17.2758 5.17968 15.6272 4.41477 13.8697 4.26779ZM12.6266 3.62139V3.02222C13.8709 2.93313 15.1198 3.11263 16.2886 3.54853C17.4574 3.98444 18.5189 4.66656 19.401 5.54865C20.2831 6.43074 20.9652 7.49219 21.4011 8.66102C21.837 9.82985 22.0165 11.0787 21.9274 12.323H12.6266V3.62139Z" fill="#71717A"/>
</svg>
