<svg width="25" height="24" viewBox="0 0 25 24" fill="none" xmlns="http://www.w3.org/2000/svg">
<g id="Nav Icon" clip-path="url(#clip0_3858_1162)">
<path id="Vector" d="M23.375 19.5H21.875V12.6581C21.8755 12.6535 21.8755 12.6487 21.875 12.6441L20.4688 2.78813C20.416 2.42968 20.236 2.10221 19.9615 1.86566C19.6871 1.62911 19.3367 1.4993 18.9744 1.5H17.2756C16.9149 1.50155 16.5667 1.63237 16.2943 1.86871C16.0218 2.10506 15.8431 2.43127 15.7906 2.78813L14.7069 10.3734L11.075 7.65C10.9636 7.56643 10.8311 7.51554 10.6924 7.50303C10.5536 7.49053 10.4142 7.51689 10.2896 7.57918C10.165 7.64147 10.0602 7.73722 9.98701 7.85571C9.91379 7.97419 9.875 8.11072 9.875 8.25V11.25L5.075 7.65C4.96357 7.56643 4.83108 7.51554 4.69235 7.50303C4.55363 7.49053 4.41417 7.51689 4.28959 7.57918C4.16501 7.64147 4.06024 7.73722 3.98701 7.85571C3.91379 7.97419 3.875 8.11072 3.875 8.25V19.5H2.375C2.17609 19.5 1.98532 19.579 1.84467 19.7197C1.70402 19.8603 1.625 20.0511 1.625 20.25C1.625 20.4489 1.70402 20.6397 1.84467 20.7803C1.98532 20.921 2.17609 21 2.375 21H23.375C23.5739 21 23.7647 20.921 23.9053 20.7803C24.046 20.6397 24.125 20.4489 24.125 20.25C24.125 20.0511 24.046 19.8603 23.9053 19.7197C23.7647 19.579 23.5739 19.5 23.375 19.5ZM11 17.25H8.375C8.17609 17.25 7.98532 17.171 7.84467 17.0303C7.70402 16.8897 7.625 16.6989 7.625 16.5C7.625 16.3011 7.70402 16.1103 7.84467 15.9697C7.98532 15.829 8.17609 15.75 8.375 15.75H11C11.1989 15.75 11.3897 15.829 11.5303 15.9697C11.671 16.1103 11.75 16.3011 11.75 16.5C11.75 16.6989 11.671 16.8897 11.5303 17.0303C11.3897 17.171 11.1989 17.25 11 17.25ZM17.375 17.25H14.75C14.5511 17.25 14.3603 17.171 14.2197 17.0303C14.079 16.8897 14 16.6989 14 16.5C14 16.3011 14.079 16.1103 14.2197 15.9697C14.3603 15.829 14.5511 15.75 14.75 15.75H17.375C17.5739 15.75 17.7647 15.829 17.9053 15.9697C18.046 16.1103 18.125 16.3011 18.125 16.5C18.125 16.6989 18.046 16.8897 17.9053 17.0303C17.7647 17.171 17.5739 17.25 17.375 17.25ZM16.8753 12L16.0756 11.4L17.2756 3H18.9744L20.2606 12H16.8753Z" fill="white"/>
</g>
<defs>
<clipPath id="clip0_3858_1162">
<rect width="24" height="24" fill="white" transform="translate(0.875)"/>
</clipPath>
</defs>
</svg>
