<svg width="25" height="24" viewBox="0 0 25 24" fill="none" xmlns="http://www.w3.org/2000/svg">
<g id="Nav Icon">
<path id="Vector" d="M21.375 10.8328V19.5C21.375 19.8978 21.217 20.2794 20.9357 20.5607C20.6544 20.842 20.2728 21 19.875 21H4.875C4.47718 21 4.09564 20.842 3.81434 20.5607C3.53304 20.2794 3.375 19.8978 3.375 19.5V10.8328C3.37497 10.6252 3.41803 10.4199 3.50146 10.2298C3.58489 10.0397 3.70687 9.86896 3.85969 9.72844L11.3597 2.65219L11.37 2.64188C11.6461 2.39075 12.006 2.25159 12.3792 2.25159C12.7525 2.25159 13.1123 2.39075 13.3884 2.64188C13.3916 2.64554 13.3951 2.64899 13.3988 2.65219L20.8988 9.72844C21.05 9.8697 21.1704 10.0407 21.2524 10.2308C21.3344 10.4209 21.3761 10.6258 21.375 10.8328Z" fill="white"/>
</g>
</svg>
