<svg width="25" height="24" viewBox="0 0 25 24" fill="none" xmlns="http://www.w3.org/2000/svg">
<g id="Nav Icon">
<path id="Vector" d="M11.5625 16.5C11.5625 16.6492 11.5032 16.7923 11.3977 16.8977C11.2923 17.0032 11.1492 17.0625 11 17.0625H8.375C8.22582 17.0625 8.08274 17.0032 7.97725 16.8977C7.87176 16.7923 7.8125 16.6492 7.8125 16.5C7.8125 16.3508 7.87176 16.2077 7.97725 16.1023C8.08274 15.9968 8.22582 15.9375 8.375 15.9375H11C11.1492 15.9375 11.2923 15.9968 11.3977 16.1023C11.5032 16.2077 11.5625 16.3508 11.5625 16.5ZM17.375 15.9375H14.75C14.6008 15.9375 14.4577 15.9968 14.3523 16.1023C14.2468 16.2077 14.1875 16.3508 14.1875 16.5C14.1875 16.6492 14.2468 16.7923 14.3523 16.8977C14.4577 17.0032 14.6008 17.0625 14.75 17.0625H17.375C17.5242 17.0625 17.6673 17.0032 17.7727 16.8977C17.8782 16.7923 17.9375 16.6492 17.9375 16.5C17.9375 16.3508 17.8782 16.2077 17.7727 16.1023C17.6673 15.9968 17.5242 15.9375 17.375 15.9375ZM23.9375 20.25C23.9375 20.3992 23.8782 20.5423 23.7727 20.6477C23.6673 20.7532 23.5242 20.8125 23.375 20.8125H2.375C2.22582 20.8125 2.08274 20.7532 1.97725 20.6477C1.87176 20.5423 1.8125 20.3992 1.8125 20.25C1.8125 20.1008 1.87176 19.9577 1.97725 19.8523C2.08274 19.7468 2.22582 19.6875 2.375 19.6875H4.0625V8.25C4.0625 8.14554 4.09159 8.04314 4.14651 7.95428C4.20143 7.86542 4.28001 7.7936 4.37344 7.74689C4.46688 7.70017 4.57147 7.68039 4.67552 7.68977C4.77956 7.69916 4.87893 7.73732 4.9625 7.8L10.0625 11.625V8.25C10.0625 8.14554 10.0916 8.04314 10.1465 7.95428C10.2014 7.86542 10.28 7.7936 10.3734 7.74689C10.4669 7.70017 10.5715 7.68039 10.6755 7.68977C10.7796 7.69916 10.8789 7.73732 10.9625 7.8L14.8438 10.7138L15.9688 2.81438C16.0151 2.50251 16.1717 2.21758 16.4101 2.0112C16.6484 1.80482 16.9528 1.69065 17.2681 1.68938H18.9669C19.2822 1.69065 19.5866 1.80482 19.8249 2.0112C20.0633 2.21758 20.2199 2.50251 20.2663 2.81438L21.6725 12.6703C21.6725 12.6703 21.6781 12.7256 21.6781 12.75V19.6875H23.3656C23.4403 19.6863 23.5144 19.6999 23.5838 19.7276C23.6531 19.7553 23.7162 19.7965 23.7694 19.8489C23.8227 19.9013 23.865 19.9637 23.8938 20.0326C23.9227 20.1014 23.9375 20.1753 23.9375 20.25ZM15.875 11.4834L16.8125 12.1875H20.4762L19.1562 2.97375C19.1499 2.9287 19.1273 2.8875 19.0929 2.85783C19.0584 2.82817 19.0142 2.81205 18.9688 2.8125H17.2756C17.2301 2.81205 17.186 2.82817 17.1515 2.85783C17.117 2.8875 17.0945 2.9287 17.0881 2.97375L15.875 11.4834ZM5.1875 19.6875H20.5625V13.3125H16.625C16.5033 13.3125 16.3849 13.273 16.2875 13.2L14.9375 12.1875L11.1875 9.375V12.75C11.1875 12.8545 11.1584 12.9569 11.1035 13.0457C11.0486 13.1346 10.97 13.2064 10.8766 13.2531C10.7831 13.2998 10.6785 13.3196 10.5745 13.3102C10.4704 13.3008 10.3711 13.2627 10.2875 13.2L5.1875 9.375V19.6875Z" fill="#71717A"/>
</g>
</svg>
