<svg width="25" height="24" viewBox="0 0 25 24" fill="none" xmlns="http://www.w3.org/2000/svg">
<g id="Nav Icon">
<path id="Vector" d="M20.7628 9.86531L13.2628 2.78813L13.2544 2.78063C13.0134 2.55993 12.6985 2.43752 12.3717 2.43752C12.045 2.43752 11.7301 2.55993 11.4891 2.78063L11.4806 2.78813L3.98064 9.86625C3.84798 9.98976 3.74234 10.1394 3.67038 10.3058C3.59842 10.4721 3.56169 10.6516 3.56251 10.8328V19.5C3.56251 19.8481 3.70079 20.1819 3.94694 20.4281C4.19308 20.6742 4.52692 20.8125 4.87501 20.8125H19.875C20.2231 20.8125 20.5569 20.6742 20.8031 20.4281C21.0492 20.1819 21.1875 19.8481 21.1875 19.5V10.8328C21.1873 10.651 21.1494 10.4712 21.0764 10.3046C21.0033 10.1381 20.8965 9.98856 20.7628 9.86531ZM20.0625 19.5C20.0625 19.5497 20.0428 19.5974 20.0076 19.6326C19.9724 19.6677 19.9247 19.6875 19.875 19.6875H4.87501C4.82529 19.6875 4.77759 19.6677 4.74243 19.6326C4.70727 19.5974 4.68751 19.5497 4.68751 19.5V10.8328C4.68746 10.8067 4.69285 10.7809 4.70334 10.757C4.71383 10.7331 4.7292 10.7117 4.74845 10.6941L4.75689 10.6866L12.2513 3.61031C12.2854 3.58051 12.3292 3.56409 12.3745 3.56409C12.4199 3.56409 12.4637 3.58051 12.4978 3.61031L19.9931 10.6875L20.0006 10.695C20.0201 10.7125 20.0356 10.7339 20.0463 10.7578C20.0569 10.7817 20.0625 10.8076 20.0625 10.8338V19.5Z" fill="#71717A"/>
</g>
</svg>
