<svg width="25" height="24" viewBox="0 0 25 24" fill="none" xmlns="http://www.w3.org/2000/svg">
<g id="Nav Icon">
<path id="Vector" d="M21.125 4.5V15.75C21.1244 15.8568 21.101 15.9622 21.0564 16.0592C21.0118 16.1562 20.9469 16.2426 20.8663 16.3125C19.4338 17.5528 18.0641 18 16.7581 18C14.9853 18 13.3297 17.1806 11.7894 16.4203C9.30031 15.1875 7.13656 14.1197 4.625 16.1034V20.25C4.625 20.4489 4.54598 20.6397 4.40533 20.7803C4.26468 20.921 4.07391 21 3.875 21C3.67609 21 3.48532 20.921 3.34467 20.7803C3.20402 20.6397 3.125 20.4489 3.125 20.25V4.5C3.12572 4.39316 3.14926 4.2877 3.19405 4.19069C3.23883 4.09368 3.30383 4.00735 3.38469 3.9375C6.75969 1.01438 9.78875 2.51157 12.4587 3.8325C15.0312 5.10563 17.2616 6.20625 19.8837 3.9375C19.9921 3.84355 20.1252 3.78265 20.2671 3.76202C20.4091 3.74138 20.5539 3.76188 20.6846 3.82109C20.8152 3.88029 20.9262 3.97572 21.0042 4.09605C21.0823 4.21638 21.1242 4.35657 21.125 4.5Z" fill="white"/>
</g>
</svg>
