<svg width="20" height="21" viewBox="0 0 20 21" fill="none" xmlns="http://www.w3.org/2000/svg">
<path id="Vector" d="M13.555 20C13.555 20.1492 13.4957 20.2922 13.3903 20.3977C13.2848 20.5032 13.1417 20.5625 12.9925 20.5625H6.99251C6.84333 20.5625 6.70025 20.5032 6.59476 20.3977C6.48927 20.2922 6.43001 20.1492 6.43001 20C6.43001 19.8508 6.48927 19.7077 6.59476 19.6022C6.70025 19.4967 6.84333 19.4375 6.99251 19.4375H12.9925C13.1417 19.4375 13.2848 19.4967 13.3903 19.6022C13.4957 19.7077 13.555 19.8508 13.555 20ZM19.1509 4.74029C18.3237 3.12233 17.0809 1.75363 15.55 0.774662C15.4241 0.701939 15.275 0.680773 15.1339 0.715604C14.9927 0.750434 14.8705 0.838555 14.7929 0.96149C14.7154 1.08443 14.6884 1.23263 14.7176 1.37502C14.7469 1.51742 14.8302 1.64294 14.95 1.72529C16.3172 2.5932 17.4249 3.81391 18.1563 5.25872C18.1903 5.32428 18.2369 5.38249 18.2935 5.43004C18.35 5.47758 18.4153 5.51351 18.4858 5.5358C18.5562 5.55809 18.6303 5.56628 18.7039 5.55992C18.7775 5.55356 18.8491 5.53276 18.9147 5.49872C18.9803 5.46468 19.0385 5.41806 19.086 5.36152C19.1335 5.30499 19.1695 5.23964 19.1918 5.16921C19.2141 5.09878 19.2223 5.02466 19.2159 4.95106C19.2095 4.87747 19.1887 4.80584 19.1547 4.74029H19.1509ZM1.84376 5.25872C2.57516 3.81391 3.68283 2.5932 5.05001 1.72529C5.16982 1.64294 5.25309 1.51742 5.28237 1.37502C5.31165 1.23263 5.28467 1.08443 5.20708 0.96149C5.12948 0.838555 5.00731 0.750434 4.86617 0.715604C4.72503 0.680773 4.57589 0.701939 4.45001 0.774662C2.91911 1.75363 1.67627 3.12233 0.849073 4.74029C0.808085 4.80607 0.781133 4.8796 0.769908 4.95629C0.758683 5.03298 0.763426 5.11116 0.783841 5.18592C0.804255 5.26069 0.8399 5.33043 0.88854 5.39077C0.937179 5.45111 0.997764 5.50075 1.06649 5.53657C1.13522 5.5724 1.21061 5.59363 1.28793 5.59894C1.36525 5.60425 1.44284 5.59352 1.51582 5.56744C1.5888 5.54135 1.6556 5.50046 1.71204 5.44733C1.76847 5.39421 1.81331 5.33 1.84376 5.25872ZM18.625 15.5872C18.7414 15.786 18.8033 16.012 18.8047 16.2423C18.806 16.4727 18.7467 16.6994 18.6327 16.8995C18.5187 17.0997 18.354 17.2664 18.1552 17.3827C17.9563 17.4991 17.7304 17.5611 17.5 17.5625H2.50001C2.27013 17.5614 2.04456 17.5 1.84587 17.3844C1.64719 17.2688 1.48235 17.103 1.36787 16.9036C1.25339 16.7043 1.19327 16.4784 1.19354 16.2485C1.1938 16.0186 1.25444 15.7928 1.36938 15.5937C2.23095 14.1012 2.68751 11.9956 2.68751 9.49997C2.68751 7.56058 3.45793 5.70062 4.82929 4.32926C6.20065 2.9579 8.06061 2.18747 10 2.18747C11.9394 2.18747 13.7994 2.9579 15.1707 4.32926C16.5421 5.70062 17.3125 7.56058 17.3125 9.49997C17.3125 12.0312 17.7569 14.0787 18.6325 15.5872H18.625ZM17.6528 16.1497C16.6834 14.4687 16.1875 12.2318 16.1875 9.49997C16.1875 7.85895 15.5356 6.28513 14.3752 5.12475C13.2149 3.96437 11.641 3.31247 10 3.31247C8.35898 3.31247 6.78517 3.96437 5.62479 5.12475C4.46441 6.28513 3.81251 7.85895 3.81251 9.49997C3.81251 12.2337 3.31657 14.4687 2.3397 16.1562C2.32324 16.1847 2.31458 16.2171 2.31458 16.25C2.31458 16.2829 2.32324 16.3152 2.3397 16.3437C2.35514 16.3724 2.37816 16.3964 2.40627 16.4129C2.43437 16.4294 2.46647 16.4379 2.49907 16.4375H17.5C17.5326 16.4379 17.5647 16.4294 17.5928 16.4129C17.6209 16.3964 17.6439 16.3724 17.6594 16.3437C17.676 16.3153 17.6848 16.283 17.685 16.2501C17.6851 16.2172 17.6766 16.1848 17.6603 16.1562L17.6528 16.1497Z" fill="white"/>
</svg>
