<svg width="20" height="20" viewBox="0 0 20 20" fill="none" xmlns="http://www.w3.org/2000/svg">
<path d="M17.2062 10.3313L11.5812 15.9563C11.4924 16.0391 11.3749 16.0841 11.2534 16.082C11.132 16.0798 11.0161 16.0307 10.9302 15.9448C10.8444 15.8589 10.7952 15.743 10.793 15.6216C10.7909 15.5001 10.8359 15.3826 10.9187 15.2938L15.743 10.4688H3.125C3.00068 10.4688 2.88145 10.4194 2.79354 10.3315C2.70564 10.2436 2.65625 10.1243 2.65625 10C2.65625 9.87568 2.70564 9.75645 2.79354 9.66855C2.88145 9.58064 3.00068 9.53125 3.125 9.53125H15.743L10.9187 4.70625C10.8359 4.61739 10.7909 4.49986 10.793 4.37843C10.7952 4.25699 10.8444 4.14112 10.9302 4.05524C11.0161 3.96936 11.132 3.92016 11.2534 3.91802C11.3749 3.91588 11.4924 3.96095 11.5812 4.04375L17.2062 9.66875C17.294 9.75664 17.3433 9.87578 17.3433 10C17.3433 10.1242 17.294 10.2434 17.2062 10.3313Z" fill="#3F3F46"/>
</svg>
